Coordinates
version=1
nRows=6
nColumns=107
inDegrees=yes

Units are S.I. units (second, meters, Newtons, ...)
If the header above contains a line with 'inDegrees', this indicates whether rotational values are in degrees (yes) or radians (no).

endheader
time	sternoclavicular_r2	sternoclavicular_r3	unrotscap_r3	unrotscap_r2	acromioclavicular_r2	acromioclavicular_r3	acromioclavicular_r1	unrothum_r1	unrothum_r3	unrothum_r2	elv_angle	shoulder_elv	shoulder1_r2	shoulder_rot	elbow_flexion	pro_sup	deviation	flexion	proximal_distal_r1	proximal_distal_r3	cmc_flexion	cmc_abduction	mp_flexion	ip_flexion	mcp2_flexion	mcp2_abduction	pm2_flexion	md2_flexion	mcp3_flexion	mcp3_abduction	pm3_flexion	md3_flexion	mcp4_flexion	mcp4_abduction	pm4_flexion	md4_flexion	mcp5_flexion	mcp5_abduction	pm5_flexion	md5_flexion	bicpt_tx	bicpt_ty	bicpt_tz	bicpt2_tx	bicpt2_ty	bicpt2_tz	ptpt_tx	ptpt_ty	ptpt_tz	FCUpt_tx	FCUpt_ty	FCUpt_tz	EDCpt_tx	EDCpt_ty	EDCpt_tz	APLpt_tx	APLpt_ty	APLpt_tz	FPLpt_tx	FPLpt_ty	FPLpt_tz	FPLpt2_tx	FPLpt2_ty	FPLpt2_tz	PEC1pt2_tx	PEC1pt2_ty	PEC1pt2_tz	PEC1pt3_tx	PEC1pt3_ty	PEC1pt3_tz	PEC2pt2_tx	PEC2pt2_ty	PEC2pt2_tz	PEC2pt3_tx	PEC2pt3_ty	PEC2pt3_tz	PEC3pt2_tx	PEC3pt2_ty	PEC3pt2_tz	PEC3pt3_tx	PEC3pt3_ty	PEC3pt3_tz	DELT2pt2a_tx	DELT2pt2a_ty	DELT2pt2a_tz	DELT2pt2_tx	DELT2pt2_ty	DELT2pt2_tz	LAT1pt2_tx	LAT1pt2_ty	LAT1pt2_tz	LAT1pt3_tx	LAT1pt3_ty	LAT1pt3_tz	LAT2pt2_tx	LAT2pt2_ty	LAT2pt2_tz	LAT2pt3_tx	LAT2pt3_ty	LAT2pt3_tz	LAT3pt2_tx	LAT3pt2_ty	LAT3pt2_tz	LAT3pt3_tx	LAT3pt3_ty	LAT3pt3_tz
      0.00000000	     -0.32182708	      0.13631076	     -0.13631076	      0.32182708	     -0.06516344	      0.52662797	      0.23671565	     -0.23671565	     -0.52662797	      0.06516344	     98.68564714	     76.19542085	     -1.72238947	    -20.82079241	     29.03225425	     21.21734032	      0.07440693	     -0.65697316	      0.09644981	     -0.32848658	      6.05677438	      5.42797347	    -34.91085045	    -46.14118185	    -22.73284026	      5.97755144	     16.83690883	    -17.10579705	     54.45766793	      9.44646777	     78.74372734	     63.43116779	     41.34290163	     -6.95559017	     89.65135581	     35.08828012	    -18.94672602	    -12.47325159	    -14.19725413	      4.96346001	      0.00086030	     -0.03092754	     -0.00483598	      0.01613577	     -0.01808675	     -0.00922779	      0.00598228	     -0.06591372	     -0.00175917	      0.00594367	     -0.18383570	     -0.00012025	     -0.00254607	      0.00067063	      0.00018566	      0.00031072	      0.00012429	      0.00062144	      0.00039772	      0.00119316	      0.00067115	      0.00003790	     -0.00013104	     -0.00015725	      0.00249752	      0.00876248	      0.00609564	     -0.00816985	      0.01972616	     -0.01871022	      0.00249752	      0.00876248	      0.00609564	      0.00055030	      0.01828692	     -0.00960910	      0.00394902	      0.00487270	      0.01597027	      0.00000000	      0.00776443	      0.00000000	     -0.00715391	     -0.03306037	     -0.00640204	      0.01424539	     -0.00045728	     -0.00358840	     -0.00088895	      0.01490045	     -0.00609564	      0.00245519	      0.02150406	     -0.01777895	     -0.00596865	      0.01291090	     -0.00546068	     -0.01244526	      0.02726105	     -0.03052052	     -0.02336662	      0.01443481	     -0.00732323	     -0.01549308	      0.03149413	     -0.03814007
      0.03333333	     -0.32193922	      0.13635826	     -0.13635826	      0.32193922	     -0.06518614	      0.52681148	      0.23679813	     -0.23679813	     -0.52681148	      0.06518614	     98.81605522	     76.22197182	     -1.72466552	    -20.92490998	     28.96098930	     21.04390292	      0.07347920	     -0.65610765	      0.09530235	     -0.32805383	      5.99894006	      5.45456965	    -34.90439410	    -46.12811962	    -22.76950813	      5.96826656	     16.82844693	    -17.10570677	     54.44836317	      9.45408660	     78.75601745	     63.43700536	     41.32559910	     -6.92377047	     89.64549393	     35.08508600	    -18.78439059	    -12.53352868	    -14.14607191	      4.97619459	      0.00085794	     -0.03091937	     -0.00483466	      0.01612796	     -0.01806739	     -0.00924171	      0.00599509	     -0.06590543	     -0.00174520	      0.00592721	     -0.18383838	     -0.00011655	     -0.00252526	      0.00066458	      0.00018513	      0.00031079	      0.00012431	      0.00062157	      0.00039781	      0.00119342	      0.00067130	      0.00003800	     -0.00012998	     -0.00015598	      0.00249839	      0.00876553	      0.00609776	     -0.00817270	      0.01973304	     -0.01871674	      0.00249839	      0.00876553	      0.00609776	      0.00055049	      0.01829329	     -0.00961245	      0.00395002	      0.00487440	      0.01597273	      0.00000000	      0.00776988	      0.00000000	     -0.00715640	     -0.03307189	     -0.00640656	      0.01430426	     -0.00046051	     -0.00362597	     -0.00088926	      0.01490564	     -0.00609776	      0.00245604	      0.02151155	     -0.01778514	     -0.00597073	      0.01291540	     -0.00546258	     -0.01244960	      0.02727055	     -0.03053116	     -0.02337476	      0.01443984	     -0.00732578	     -0.01549848	      0.03150511	     -0.03815336
      0.06666667	     -0.32101366	      0.13596624	     -0.13596624	      0.32101366	     -0.06499874	      0.52529692	      0.23611735	     -0.23611735	     -0.52529692	      0.06499874	     99.05197942	     76.00283752	     -1.72878317	    -22.02851083	     28.85392633	     20.46539297	      0.03433170	     -0.72660826	      0.04562834	     -0.36330413	      4.10090772	      7.12718819	    -33.83719200	    -44.34697591	    -22.27504611	      6.26303110	     17.30921656	    -17.48367864	     54.40181290	      8.75655131	     78.90680341	     63.61986168	     41.00362791	     -7.11161179	     89.31392924	     35.65065228	    -17.15162801	    -12.69670270	    -16.75478204	      4.96826882	      0.00085440	     -0.03090710	     -0.00483269	      0.01610141	     -0.01803831	     -0.00928786	      0.00603784	     -0.06587779	     -0.00169860	      0.00587241	     -0.18384725	     -0.00010406	     -0.00245584	      0.00064449	      0.00018325	      0.00030128	      0.00012051	      0.00060256	      0.00038564	      0.00115692	      0.00065077	      0.00004193	     -0.00009318	     -0.00011182	      0.00249121	      0.00874033	      0.00608023	     -0.00814920	      0.01967631	     -0.01866293	      0.00249121	      0.00874033	      0.00608023	      0.00054891	      0.01824070	     -0.00958481	      0.00394172	      0.00486039	      0.01595242	      0.00000000	      0.00772495	      0.00000000	     -0.00713583	     -0.03297681	     -0.00636927	      0.01491929	     -0.00049504	     -0.00403436	     -0.00088670	      0.01486279	     -0.00608023	      0.00244898	      0.02144971	     -0.01773401	     -0.00595356	      0.01287827	     -0.00544687	     -0.01241381	      0.02719215	     -0.03044338	     -0.02330756	      0.01439833	     -0.00730472	     -0.01545392	      0.03141453	     -0.03804367
      0.10000000	     -0.32063858	      0.13580737	     -0.13580737	      0.32063858	     -0.06492279	      0.52468315	      0.23584147	     -0.23584147	     -0.52468315	      0.06492279	     99.17096059	     75.91403412	     -1.73085978	    -22.58880993	     28.88261252	     20.57401791	      0.02609973	     -0.73492968	      0.03486345	     -0.36746484	      3.61925305	      7.35218052	    -33.77416457	    -43.52484304	    -22.39525752	      6.32364327	     17.67835452	    -17.80511909	     54.03536767	      8.69224902	     79.21854213	     63.26361453	     40.80001515	     -7.04640380	     89.07649262	     36.51402326	    -16.86407221	    -12.76186364	    -16.93276632	      4.96037885	      0.00085535	     -0.03091039	     -0.00483322	      0.01610645	     -0.01804610	     -0.00927923	      0.00602981	     -0.06588298	     -0.00170735	      0.00588269	     -0.18384559	     -0.00010642	     -0.00246888	      0.00064825	      0.00018362	      0.00029961	      0.00011984	      0.00059922	      0.00038350	      0.00115050	      0.00064716	      0.00004243	     -0.00008320	     -0.00009985	      0.00248830	      0.00873012	      0.00607313	     -0.00813968	      0.01965332	     -0.01864113	      0.00248830	      0.00873012	      0.00607313	      0.00054827	      0.01821938	     -0.00957361	      0.00393835	      0.00485471	      0.01594416	      0.00000000	      0.00770679	      0.00000000	     -0.00712749	     -0.03293828	     -0.00635419	      0.01522532	     -0.00051275	     -0.00424875	     -0.00088566	      0.01484542	     -0.00607313	      0.00244612	      0.02142465	     -0.01771329	     -0.00594660	      0.01286322	     -0.00544051	     -0.01239930	      0.02716038	     -0.03040781	     -0.02328032	      0.01438150	     -0.00729619	     -0.01543587	      0.03137783	     -0.03799922
      0.13333333	     -0.32096590	      0.13594601	     -0.13594601	      0.32096590	     -0.06498907	      0.52521877	      0.23608222	     -0.23608222	     -0.52521877	      0.06498907	     99.11226381	     75.99153030	     -1.72983533	    -22.24251976	     28.88884452	     19.89264698	      0.02417139	     -0.74337700	      0.03232591	     -0.37168850	      3.30869508	      7.51685426	    -33.68962961	    -43.17545382	    -22.39987390	      6.39673958	     17.89622771	    -18.12785785	     53.90188698	      8.67474357	     79.34947825	     63.29727717	     40.69946564	     -6.93871996	     88.88004542	     37.06666199	    -16.43757848	    -12.78882137	    -17.37056524	      4.95815005	      0.00085555	     -0.03091110	     -0.00483333	      0.01607437	     -0.01804780	     -0.00933308	      0.00608016	     -0.06585042	     -0.00165246	      0.00581825	     -0.18385594	     -0.00009144	     -0.00238711	      0.00062469	      0.00018121	      0.00029780	      0.00011912	      0.00059559	      0.00038118	      0.00114353	      0.00064324	      0.00004237	     -0.00007664	     -0.00009196	      0.00249084	      0.00873903	      0.00607933	     -0.00814799	      0.01967338	     -0.01866016	      0.00249084	      0.00873903	      0.00607933	      0.00054883	      0.01823798	     -0.00958338	      0.00394129	      0.00485967	      0.01595137	      0.00000000	      0.00772264	      0.00000000	     -0.00713477	     -0.03297191	     -0.00636735	      0.01503668	     -0.00050179	     -0.00411569	     -0.00088657	      0.01486058	     -0.00607933	      0.00244862	      0.02144652	     -0.01773137	     -0.00595267	      0.01287635	     -0.00544606	     -0.01241196	      0.02718810	     -0.03043886	     -0.02330409	      0.01439619	     -0.00730364	     -0.01545162	      0.03140986	     -0.03803801
      0.16666667	     -0.32251716	      0.13660305	     -0.13660305	      0.32251716	     -0.06530316	      0.52775720	      0.23722323	     -0.23722323	     -0.52775720	      0.06530316	     98.78463922	     76.35880388	     -1.72411720	    -20.41356007	     28.82248622	     17.79693287	      0.02647788	     -0.75981358	      0.03536058	     -0.37990679	      3.16524498	      7.59381652	    -33.68753146	    -42.86622068	    -22.44326171	      6.44505078	     18.20266779	    -18.11519458	     53.78677218	      8.68224969	     79.45916346	     63.28346564	     40.64988006	     -6.87028622	     88.80032885	     37.31546693	    -16.13320457	    -12.81939327	    -17.61728606	      4.95970004	      0.00085336	     -0.03090350	     -0.00483211	      0.01596902	     -0.01802977	     -0.00949464	      0.00623501	     -0.06575030	     -0.00148364	      0.00562094	     -0.18388695	     -0.00004318	     -0.00213563	      0.00055312	      0.00017223	      0.00029392	      0.00011757	      0.00058784	      0.00037622	      0.00112866	      0.00063487	      0.00004221	     -0.00007357	     -0.00008828	      0.00250287	      0.00878127	      0.00610871	     -0.00818737	      0.01976846	     -0.01875034	      0.00250287	      0.00878127	      0.00610871	      0.00055148	      0.01832613	     -0.00962970	      0.00395520	      0.00488315	      0.01598535	      0.00000000	      0.00779799	      0.00000000	     -0.00716925	     -0.03313126	     -0.00642991	      0.01401376	     -0.00044467	     -0.00344310	     -0.00089085	      0.01493240	     -0.00610871	      0.00246045	      0.02155017	     -0.01781707	     -0.00598144	      0.01293859	     -0.00547239	     -0.01247195	      0.02731951	     -0.03058597	     -0.02341672	      0.01446576	     -0.00733894	     -0.01552630	      0.03156167	     -0.03822186
